<?xml version="1.0" encoding="UTF-8" standalone="no"?>
<!-- Created with Inkscape (http://www.inkscape.org/) -->

<svg
   width="1920"
   height="1080"
   viewBox="0 0 507.99999 285.75"
   version="1.1"
   id="svg1"
   inkscape:version="1.4.3 (fcd0343856, 2026-01-01)"
   sodipodi:docname="repo_testing_fanart.svg"
   inkscape:export-filename="../reposource/repository.elaondetesting/fanart.png"
   inkscape:export-xdpi="96"
   inkscape:export-ydpi="96"
   xmlns:inkscape="http://www.inkscape.org/namespaces/inkscape"
   xmlns:sodipodi="http://sodipodi.sourceforge.net/DTD/sodipodi-0.dtd"
   xmlns="http://www.w3.org/2000/svg"
   xmlns:svg="http://www.w3.org/2000/svg">
  <sodipodi:namedview
     id="namedview1"
     pagecolor="#ffffff"
     bordercolor="#000000"
     borderopacity="0.25"
     inkscape:showpageshadow="2"
     inkscape:pageopacity="0.0"
     inkscape:pagecheckerboard="0"
     inkscape:deskcolor="#d1d1d1"
     inkscape:document-units="mm"
     inkscape:zoom="0.37323245"
     inkscape:cx="624.27584"
     inkscape:cy="602.84148"
     inkscape:window-width="1979"
     inkscape:window-height="1266"
     inkscape:window-x="26"
     inkscape:window-y="23"
     inkscape:window-maximized="0"
     inkscape:current-layer="layer1" />
  <defs
     id="defs1" />
  <g
     inkscape:label="Layer 1"
     inkscape:groupmode="layer"
     id="layer1">
    <rect
       style="fill:#270b0a;fill-opacity:1;stroke-width:0.375879;stroke-dasharray:none"
       id="rect4"
       width="513.82745"
       height="294.3847"
       x="-2.3880239"
       y="-5.8222427"
       rx="0"
       ry="0" />
    <g
       id="g1"
       transform="matrix(1.4556134,0,0,1.4556134,-4.6107879,-82.940502)">
      <path
         d="m 173.8763,85.11796 v 7.57617 c 0,1.041724 0.85231,1.894043 1.89404,1.894043 h 3.78808 c 1.04173,0 1.89405,-0.852319 1.89405,-1.894043 v -7.57617 h 3.78808 c 4.17873,0 7.57617,3.397438 7.57617,7.57617 v 15.15234 c 0,0.65108 -0.0829,1.29032 -0.23676,1.89404 H 162.7488 c -0.1539,-0.60372 -0.23676,-1.24296 -0.23676,-1.89404 V 92.69413 c 0,-4.178732 3.39744,-7.57617 7.57617,-7.57617 z m 11.36425,60.60937 c -1.32583,0 -2.58063,-0.3433 -3.66971,-0.94703 1.12459,-1.95323 1.77567,-4.21424 1.77567,-6.62915 v -15.15234 c 0,-2.4149 -0.65108,-4.67591 -1.77567,-6.62915 1.08908,-0.60372 2.33204,-0.94702 3.66971,-0.94702 h 3.78809 v 7.57617 c 0,1.04173 0.85232,1.89404 1.89404,1.89404 h 3.78808 c 1.04173,0 1.89404,-0.85231 1.89404,-1.89404 v -7.57617 h 3.78809 c 4.17873,0 7.57617,3.39744 7.57617,7.57617 v 15.15234 c 0,4.17874 -3.39744,7.57618 -7.57617,7.57618 z M 147.3597,122.99881 c 0,-4.17873 3.39744,-7.57617 7.57617,-7.57617 h 3.78808 v 7.57617 c 0,1.04173 0.85232,1.89404 1.89405,1.89404 h 3.78808 c 1.04173,0 1.89404,-0.85231 1.89404,-1.89404 v -7.57617 h 3.78809 c 4.17873,0 7.57617,3.39744 7.57617,7.57617 v 15.15234 c 0,4.17874 -3.39744,7.57618 -7.57617,7.57618 h -15.15234 c -4.17873,0 -7.57617,-3.39744 -7.57617,-7.57618 z"
         id="path1"
         style="fill:#ded9d9;fill-opacity:1;stroke-width:0.11834;stroke-dasharray:none" />
      <text
         xml:space="preserve"
         style="font-weight:bold;font-size:22.5778px;line-height:0;font-family:'Argentum Sans';-inkscape-font-specification:'Argentum Sans Bold';writing-mode:lr-tb;direction:ltr;fill:#ded9d9;fill-opacity:1;stroke-width:1.32292"
         x="126.27744"
         y="172.38828"
         id="text1"><tspan
           sodipodi:role="line"
           id="tspan1"
           x="126.27744"
           y="172.38828"
           style="fill:#ded9d9;fill-opacity:1;stroke-width:1.32292">ElaonDE</tspan><tspan
           sodipodi:role="line"
           x="126.27744"
           y="172.38828"
           id="tspan2"
           style="stroke-width:1.32292" /></text>
      <text
         xml:space="preserve"
         style="font-weight:bold;font-size:22.5778px;line-height:0;font-family:'Argentum Sans';-inkscape-font-specification:'Argentum Sans Bold';writing-mode:lr-tb;direction:ltr;fill:#ded9d9;fill-opacity:1;stroke-width:1.32292"
         x="111.38747"
         y="220.58984"
         id="text3"><tspan
           sodipodi:role="line"
           id="tspan3"
           x="111.38747"
           y="220.58984"
           style="fill:#ded9d9;fill-opacity:1;stroke-width:1.32292">Repository</tspan></text>
      <text
         xml:space="preserve"
         style="font-weight:bold;font-size:22.5778px;line-height:0;font-family:'Argentum Sans';-inkscape-font-specification:'Argentum Sans Bold';writing-mode:lr-tb;direction:ltr;fill:#ded9d9;fill-opacity:1;stroke-width:0.176477;stroke-dasharray:none"
         x="134.68767"
         y="196.35645"
         id="text4"><tspan
           sodipodi:role="line"
           id="tspan4"
           x="134.68767"
           y="196.35645"
           style="stroke-width:0.176477">Testing</tspan></text>
    </g>
  </g>
</svg>
