<?xml version="1.0" encoding="UTF-8" standalone="no"?>
<svg
   viewBox="0 0 640 640"
   version="1.1"
   id="svg1"
   sodipodi:docname="repo_icon.svg"
   inkscape:version="1.4.3 (fcd0343856, 2026-01-01)"
   inkscape:export-filename="../reposource/repository.elaonde/icon.png"
   inkscape:export-xdpi="76.800003"
   inkscape:export-ydpi="76.800003"
   xmlns:inkscape="http://www.inkscape.org/namespaces/inkscape"
   xmlns:sodipodi="http://sodipodi.sourceforge.net/DTD/sodipodi-0.dtd"
   xmlns="http://www.w3.org/2000/svg"
   xmlns:svg="http://www.w3.org/2000/svg">
  <defs
     id="defs1" />
  <sodipodi:namedview
     id="namedview1"
     pagecolor="#ffffff"
     bordercolor="#000000"
     borderopacity="0.25"
     inkscape:showpageshadow="2"
     inkscape:pageopacity="0.0"
     inkscape:pagecheckerboard="0"
     inkscape:deskcolor="#d1d1d1"
     inkscape:zoom="0.67230387"
     inkscape:cx="124.9435"
     inkscape:cy="426.8903"
     inkscape:window-width="1675"
     inkscape:window-height="1188"
     inkscape:window-x="26"
     inkscape:window-y="23"
     inkscape:window-maximized="0"
     inkscape:current-layer="svg1" />
  <!--!Font Awesome Free 7.2.0 by @fontawesome - https://fontawesome.com License - https://fontawesome.com/license/free Copyright 2026 Fonticons, Inc.-->
  <rect
     style="fill:#270b0a;fill-opacity:1;stroke-width:0.620294;stroke-dasharray:none"
     id="rect4"
     width="642.56665"
     height="641.07916"
     x="-1.4874225"
     y="1.4874228"
     rx="0"
     ry="0" />
  <g
     id="g1">
    <path
       d="m 305.68283,61.1931 v 28.634343 c 0,3.937224 3.22136,7.158586 7.15859,7.158586 h 14.31717 c 3.93723,0 7.15859,-3.221362 7.15859,-7.158586 V 61.1931 h 14.31716 c 15.79363,0 28.63435,12.840711 28.63435,28.634343 v 57.268697 c 0,2.46076 -0.31319,4.87678 -0.89483,7.15858 H 263.62614 c -0.58164,-2.2818 -0.89483,-4.69782 -0.89483,-7.15858 V 89.827443 c 0,-15.793632 12.84071,-28.634343 28.63435,-28.634343 z m 42.95152,229.07477 c -5.01101,0 -9.75357,-1.29749 -13.86977,-3.5793 4.25042,-7.38228 6.71118,-15.92785 6.71118,-25.05505 v -57.26869 c 0,-9.1272 -2.46076,-17.67276 -6.71118,-25.05506 4.1162,-2.28179 8.81402,-3.57929 13.86977,-3.57929 h 14.31718 v 28.63435 c 0,3.93722 3.22136,7.15858 7.15858,7.15858 h 14.31716 c 3.93723,0 7.15859,-3.22136 7.15859,-7.15858 v -28.63435 h 14.31717 c 15.79363,0 28.63435,12.84072 28.63435,28.63435 v 57.26869 c 0,15.79363 -12.84072,28.63435 -28.63435,28.63435 z M 205.46262,204.36483 c 0,-15.79363 12.84071,-28.63435 28.63434,-28.63435 h 14.31717 v 28.63435 c 0,3.93722 3.22137,7.15858 7.1586,7.15858 h 14.31717 c 3.93722,0 7.15858,-3.22136 7.15858,-7.15858 v -28.63435 h 14.31718 c 15.79363,0 28.63434,12.84072 28.63434,28.63435 v 57.26869 c 0,15.79363 -12.84071,28.63435 -28.63434,28.63435 h -57.2687 c -15.79363,0 -28.63434,-12.84072 -28.63434,-28.63435 z"
       id="path1"
       style="fill:#ded9d9;fill-opacity:1;stroke-width:0.447268;stroke-dasharray:none" />
    <text
       xml:space="preserve"
       style="font-weight:bold;font-size:85.3333px;line-height:0;font-family:'Argentum Sans';-inkscape-font-specification:'Argentum Sans Bold';writing-mode:lr-tb;direction:ltr;fill:#ded9d9;fill-opacity:1;stroke-width:5"
       x="125.78165"
       y="429.03369"
       id="text1"><tspan
         sodipodi:role="line"
         id="tspan1"
         x="125.78165"
         y="429.03369"
         style="fill:#ded9d9;fill-opacity:1">ElaonDE</tspan><tspan
         sodipodi:role="line"
         x="125.78165"
         y="429.03369"
         id="tspan2" /></text>
    <text
       xml:space="preserve"
       style="font-weight:bold;font-size:85.3333px;line-height:0;font-family:'Argentum Sans';-inkscape-font-specification:'Argentum Sans Bold';writing-mode:lr-tb;direction:ltr;fill:#ded9d9;fill-opacity:1;stroke-width:5"
       x="69.504585"
       y="531.21283"
       id="text3"><tspan
         sodipodi:role="line"
         id="tspan3"
         x="69.504585"
         y="531.21283"
         style="fill:#ded9d9;fill-opacity:1">Repository</tspan></text>
  </g>
</svg>
