<?xml version="1.0" encoding="UTF-8" standalone="no"?>
<!-- Created with Inkscape (http://www.inkscape.org/) -->

<svg
   width="1920"
   height="1080"
   viewBox="0 0 507.99999 285.75"
   version="1.1"
   id="svg1"
   inkscape:version="1.4.3 (fcd0343856, 2026-01-01)"
   sodipodi:docname="repo_fanart.svg"
   inkscape:export-filename="../reposource/repository.elaonde/fanart.png"
   inkscape:export-xdpi="96"
   inkscape:export-ydpi="96"
   xmlns:inkscape="http://www.inkscape.org/namespaces/inkscape"
   xmlns:sodipodi="http://sodipodi.sourceforge.net/DTD/sodipodi-0.dtd"
   xmlns="http://www.w3.org/2000/svg"
   xmlns:svg="http://www.w3.org/2000/svg">
  <sodipodi:namedview
     id="namedview1"
     pagecolor="#ffffff"
     bordercolor="#000000"
     borderopacity="0.25"
     inkscape:showpageshadow="2"
     inkscape:pageopacity="0.0"
     inkscape:pagecheckerboard="0"
     inkscape:deskcolor="#d1d1d1"
     inkscape:document-units="mm"
     inkscape:zoom="0.52783039"
     inkscape:cx="585.41533"
     inkscape:cy="505.84431"
     inkscape:window-width="1979"
     inkscape:window-height="1266"
     inkscape:window-x="26"
     inkscape:window-y="23"
     inkscape:window-maximized="0"
     inkscape:current-layer="layer1" />
  <defs
     id="defs1" />
  <g
     inkscape:label="Layer 1"
     inkscape:groupmode="layer"
     id="layer1">
    <rect
       style="fill:#270b0a;fill-opacity:1;stroke-width:0.375879;stroke-dasharray:none"
       id="rect4"
       width="513.82745"
       height="294.3847"
       x="-2.3880239"
       y="-5.8222427"
       rx="0"
       ry="0" />
    <g
       id="g2"
       transform="matrix(0.39071238,0,0,0.39071238,128.97204,23.777422)">
      <path
         d="m 305.68283,61.1931 v 28.634343 c 0,3.937224 3.22136,7.158586 7.15859,7.158586 h 14.31717 c 3.93723,0 7.15859,-3.221362 7.15859,-7.158586 V 61.1931 h 14.31716 c 15.79363,0 28.63435,12.840711 28.63435,28.634343 v 57.268697 c 0,2.46076 -0.31319,4.87678 -0.89483,7.15858 H 263.62614 c -0.58164,-2.2818 -0.89483,-4.69782 -0.89483,-7.15858 V 89.827443 c 0,-15.793632 12.84071,-28.634343 28.63435,-28.634343 z m 42.95152,229.07477 c -5.01101,0 -9.75357,-1.29749 -13.86977,-3.5793 4.25042,-7.38228 6.71118,-15.92785 6.71118,-25.05505 v -57.26869 c 0,-9.1272 -2.46076,-17.67276 -6.71118,-25.05506 4.1162,-2.28179 8.81402,-3.57929 13.86977,-3.57929 h 14.31718 v 28.63435 c 0,3.93722 3.22136,7.15858 7.15858,7.15858 h 14.31716 c 3.93723,0 7.15859,-3.22136 7.15859,-7.15858 v -28.63435 h 14.31717 c 15.79363,0 28.63435,12.84072 28.63435,28.63435 v 57.26869 c 0,15.79363 -12.84072,28.63435 -28.63435,28.63435 z M 205.46262,204.36483 c 0,-15.79363 12.84071,-28.63435 28.63434,-28.63435 h 14.31717 v 28.63435 c 0,3.93722 3.22137,7.15858 7.1586,7.15858 h 14.31717 c 3.93722,0 7.15858,-3.22136 7.15858,-7.15858 v -28.63435 h 14.31718 c 15.79363,0 28.63434,12.84072 28.63434,28.63435 v 57.26869 c 0,15.79363 -12.84071,28.63435 -28.63434,28.63435 h -57.2687 c -15.79363,0 -28.63434,-12.84072 -28.63434,-28.63435 z"
         id="path1-2"
         style="fill:#ded9d9;fill-opacity:1;stroke-width:0.447268;stroke-dasharray:none" />
      <text
         xml:space="preserve"
         style="font-weight:bold;font-size:85.3333px;line-height:0;font-family:'Argentum Sans';-inkscape-font-specification:'Argentum Sans Bold';writing-mode:lr-tb;direction:ltr;fill:#ded9d9;fill-opacity:1;stroke-width:5"
         x="125.78165"
         y="429.03369"
         id="text1-9"><tspan
           sodipodi:role="line"
           id="tspan1-1"
           x="125.78165"
           y="429.03369"
           style="fill:#ded9d9;fill-opacity:1">ElaonDE</tspan><tspan
           sodipodi:role="line"
           x="125.78165"
           y="429.03369"
           id="tspan2-2" /></text>
      <text
         xml:space="preserve"
         style="font-weight:bold;font-size:85.3333px;line-height:0;font-family:'Argentum Sans';-inkscape-font-specification:'Argentum Sans Bold';writing-mode:lr-tb;direction:ltr;fill:#ded9d9;fill-opacity:1;stroke-width:5"
         x="69.504585"
         y="531.21283"
         id="text3-7"><tspan
           sodipodi:role="line"
           id="tspan3-0"
           x="69.504585"
           y="531.21283"
           style="fill:#ded9d9;fill-opacity:1">Repository</tspan></text>
    </g>
  </g>
</svg>
